{"title":"The.Huntsman.Winters.War.2016.CAM.XviD-VAiN","uid":14367666,"size":1435102669,"categoryP":"video","categoryS":"movies","magnet":"?xt=urn:btih:a22685e78f4774142fe8619ad94c84ea20b773bd&amp;dn=The.Huntsman.Winters.War.2016.CAM.XviD-VAiN&amp;tr=udp%3A%2F%2Ftracker.leechers-paradise.org%3A6969&amp;tr=udp%3A%2F%2Fzer0day.ch%3A1337&amp;tr=udp%3A%2F%2Fopen.demonii.com%3A1337&amp;tr=udp%3A%2F%2Ftracker.coppersurfer.tk%3A6969&amp;tr=udp%3A%2F%2Fexodus.desync.com%3A6969","seeders":16,"leechers":8,"uploader":"xxxlavalxxx","files":4,"time":1461129628,"description":"http://extraimago.com/image/aQ8N\r\n \nhttp://www.imdb.com/title/tt2381991/\r\n\r\n\r\nAs a war between rival queen sisters Ravenna and Freya escalates, Eric and fellow warrior Sara, members of the Huntsmen army raised to protect Freya, try to conceal their forbidden love as they combat Ravenna's wicked intentions.\r\n\r\nDirector: Cedric Nicolas-Troyan\r\nWriters: Evan Spiliotopoulos, Craig Mazin\r\nStars: Chris Hemsworth, Jessica Chastain, Charlize Theron \r\nGenres: Action | Adventure | Drama | Fantasy\r\nCountry: USA\r\nLanguage: English\r\n\r\n\r\nBasic Information\r\nFormat                      : AVI\r\nFormat/Info                 : Audio Video Interleave\r\nFile size                   : 1.32 GiB\r\nDuration                    : 1h 43mn\r\nOverall bit rate            : 1 825 Kbps\r\nWriting library             : VirtualDub build 35491/release\r\n\r\nVideo\r\nID                          : 0\r\nFormat                      : MPEG-4 Visual\r\nFormat profile              : Advanced   \r\nFormat settings, BVOP       : 2\r\nFormat settings, QPel       : No\r\nFormat settings, GMC        : No warppoints\r\nFormat settings, Matrix     : Default (H.263)\r\nMuxing mode                 : Packed bitstream\r\nCodec ID                    : XVID\r\nCodec ID/Hint               : XviD\r\nDuration                    : 1h 43mn\r\nBit rate                    : 1 752 Kbps\r\nWidth                       : 720 pixels\r\nHeight                      : 266 pixels\r\nDisplay aspect ratio        : 2.707\r\nFrame rate                  : 23.976 (24000/1001) fps\r\nColor space                 : YUV\r\nChroma subsampling          : 4:2:0\r\nBit depth                   : 8 bits\r\nScan type                   : Progressive\r\nCompression mode            : Lossy\r\nBits/(Pixel*Frame)          : 0.382\r\nStream size                 : 1.27 GiB (96%)\r\nWriting library             : XviD 64\r\n\r\nAudio\r\nID                          : 1\r\nFormat                      : MPEG Audio\r\nFormat version              : Version 1\r\nFormat profile              : Layer 3\r\nCodec ID                    : 55\r\nCodec ID/Hint               : MP3\r\nDuration                    : 1h 43mn\r\nBit rate mode               : Constant\r\nBit rate                    : 64.0 Kbps\r\nChannel(s)                  : 1 channel\r\nSampling rate               : 44.1 KHz\r\nCompression mode            : Lossy\r\nDelay relative to video     : 2ms\r\nStream size                 : 47.3 MiB (3%)\r\nAlignment                   : Split accross interleaves\r\nInterleave, duration        : 42 ms (1.00 video frame)\r\nInterleave, preload duratio : 500 ms\r\n\r\nE N C O D E R S . N O T E S . . .       \r\n\r\nSOURCE......: ViDEO...The Huntsman Winter's War 2016 480p CAM - Sniper\r\n............: AUDiO...The Huntsman Winter's War 2016 480p CAM - Sniper\r\nSAMPLE......: Yippers \r\nADDED NOTE..: vid is ok... rotated, cropped, chopped and resized. used multiple filters to adjust rgb, lvl's, sharp, smooth, white-balance etc... \r\naudio is ok vid is cool. it's a cam, this is not for the people expecting Bluray or WEB-DL QUALiTY. just a cam....\r\n\r\n \nhttp://extraimago.com/image/aQ8T \nhttp://extraimago.com/image/aQ8j \nhttp://extraimago.com/image/aQ8n \nhttp://extraimago.com/image/aQ8s \nhttp://extraimago.com/image/aQ87 \nhttp://extraimago.com/image/aQ8c \nhttp://extraimago.com/image/aQ81","torrent":{"xt":"urn:btih:a22685e78f4774142fe8619ad94c84ea20b773bd","amp;dn":"The.Huntsman.Winters.War.2016.CAM.XviD-VAiN","amp;tr":["udp%3A%2F%2Ftracker.leechers-paradise.org%3A6969","udp%3A%2F%2Fzer0day.ch%3A1337","udp%3A%2F%2Fopen.demonii.com%3A1337","udp%3A%2F%2Ftracker.coppersurfer.tk%3A6969","udp%3A%2F%2Fexodus.desync.com%3A6969"],"infoHash":"a22685e78f4774142fe8619ad94c84ea20b773bd","infoHashBuffer":{"type":"Buffer","data":[162,38,133,231,143,71,116,20,47,232,97,154,217,76,132,234,32,183,115,189]},"announce":[],"urlList":[]}}